<?xml version="1.0" encoding="utf-8"?>
<!-- Generator: Adobe Illustrator 22.0.1, SVG Export Plug-In . SVG Version: 6.00 Build 0)  -->
<svg version="1.1" id="Layer_1" xmlns="http://www.w3.org/2000/svg" xmlns:xlink="http://www.w3.org/1999/xlink" x="0px" y="0px"
	 viewBox="0 0 744.8 170" style="enable-background:new 0 0 744.8 170;" xml:space="preserve">
<style type="text/css">
	.st0{fill:#11557C;stroke:#FFFFFF;stroke-width:0.7;stroke-linejoin:round;stroke-miterlimit:1.414;}
	.st1{fill:#11557C;stroke:#FFFFFF;stroke-width:0.74;}
</style>
<path class="st0" d="M50.5,12.3v33.2h43.7v14.9H50.5v63.6c0,8.6,1.6,14.7,4.9,18.1c3.3,3.4,9,5.1,17.1,5.1h21.6v15.4H70.7
	c-14.4,0-24.6-2.9-30.5-8.7c-5.9-5.8-8.9-15.8-8.9-29.9V60.5H0V45.6h31.3V12.3H50.5z M224.9,90.1v72.5h-19.3V90.1
	c0-10.5-1.8-18.3-5.5-23.2c-3.7-4.9-9.5-7.4-17.4-7.4c-9,0-15.9,3.2-20.8,9.6c-4.8,6.3-7.2,15.5-7.2,27.4v66.2h-19.2V0h19.2v63.1
	c3.4-6.7,8-11.7,13.9-15.2c5.9-3.5,12.8-5.2,20.8-5.2c11.9,0,20.8,3.9,26.7,11.8C222,62.4,224.9,74.2,224.9,90.1z M446,103.8h-6.4
	c-11.2,0-19.7,2-25.4,6c-5.6,3.9-8.5,9.8-8.5,17.6c0,7,2.1,12.5,6.4,16.4c4.3,3.9,10.1,5.9,17.7,5.9c10.6,0,18.9-3.7,25-11
	c6.1-7.4,9.1-17.6,9.2-30.5v-4.3H446z M483.3,95.9v66.8H464v-17.4c-4.1,7-9.3,12.1-15.6,15.5c-6.2,3.3-13.8,4.9-22.7,4.9
	c-11.9,0-21.4-3.3-28.5-10c-7.1-6.8-10.7-15.8-10.7-27.1c0-13,4.4-22.9,13.1-29.7c8.8-6.8,21.6-10.1,38.6-10.1H464v-3
	c-0.1-9.3-2.4-16.1-7.1-20.3c-4.7-4.3-12.1-6.4-22.4-6.4c-6.6,0-13.2,0.9-19.9,2.8c-6.7,1.9-13.2,4.6-19.5,8.3V50.9
	c7.1-2.7,13.9-4.7,20.4-6.1c6.5-1.4,12.9-2.1,19-2.1c9.7,0,17.9,1.4,24.8,4.3c6.9,2.9,12.5,7.1,16.7,12.9c2.6,3.5,4.5,7.8,5.6,13
	C482.8,77.9,483.3,85.6,483.3,95.9L483.3,95.9z M611.3,90.1v72.5h-19.3V90.1c0-10.5-1.8-18.3-5.5-23.2c-3.7-4.9-9.5-7.4-17.4-7.4
	c-9,0-15.9,3.2-20.8,9.6c-4.8,6.3-7.2,15.5-7.2,27.4v66.2h-19.2V45.6H541v17.6c3.4-6.7,8-11.7,13.9-15.2c5.9-3.5,12.8-5.2,20.8-5.2
	c11.9,0,20.8,3.9,26.7,11.8C608.3,62.4,611.3,74.2,611.3,90.1L611.3,90.1z M694.6,59.1c-9.8,0-17.1,3.8-22.2,11.4
	c-5,7.6-7.5,18.8-7.5,33.8c0,14.8,2.5,26.1,7.5,33.8c5,7.6,12.4,11.4,22.2,11.4c9.8,0,17.2-3.8,22.3-11.4c5-7.7,7.5-18.9,7.5-33.8
	c0-14.9-2.5-26.2-7.5-33.8S704.4,59.1,694.6,59.1z M694.6,42.8c16.2,0,28.6,5.3,37.2,15.8c8.6,10.5,13,25.7,13,45.7
	c0,20-4.3,35.3-12.9,45.8c-8.6,10.5-21,15.7-37.3,15.7c-16.2,0-28.6-5.2-37.2-15.7c-8.6-10.5-12.9-25.8-12.9-45.8
	c0-19.9,4.3-35.2,12.9-45.7C665.9,48,678.4,42.8,694.6,42.8z"/>
<path class="st1" d="M299.4,168.9c-15.5-3-24.5-7.1-33.3-19.6c-6.3-9.1-7.3-16.5-7.5-29.3c-0.1-6.1,0.1-7.4,1.4-10.4l1.4-3.4
	l1.7,3.7c2,4.2,3.9,7.2,5.1,8c0.7,0.5,0.9-0.5,1.3-6.8c0.3-4,0.6-8.5,0.9-9.9c0.4-2.6,0.4-2.6,3.8-3.8c6.4-2.4,18.4-2.8,39.9-1
	c9.9,0.8,31.1,1.2,33.3-0.7c2.3-2,2.6-2.9,1.9-8.5c-0.9-6.6,0.1-8-2.7-13.5c-7.2-14.2-19.1-20.2-34.9-20.3
	c-14.2,0-25.6,5.2-32.5,16.7c-6.1,10.2-8.8,21.1-10.4,41.9l-0.4,5.8l-1.3-1.9c-6.5-9.3-10.5-25.5-7.7-37.8
	c2.2-9.6,6.5-17.8,13.7-25.8c6.2-6.9,16.3-10.8,28.4-13.2c7.8-1.5,13.2-1.5,21,0c12.2,2.3,21,6.7,27.1,13.6
	c7.1,7.9,11.5,16.3,13.6,25.5c1.4,6.2,1.6,15.7,0.5,18.7c-1,2.6-8.7,11.1-8.9,10c-0.1-0.5,0.1-1.3,0.5-1.8c1.1-1.5,0.1-2.1-1.5-1
	c-1.2,0.9-1.5,0.9-2.2,0.2c-1.5-1.4-2.1,0.1-0.7,1.8c1.6,2,1.6,2.7,0.1,2.7c-0.7,0-1.3,0.2-1.5,0.4c-1.5,1.8-24.1,2.2-42.1,0.8
	c-13.3-1.1-23.9-0.8-26.3,0.6c-2,1.1-4.7,5.2-5.6,8.5c-0.9,3.1-0.4,12.6,0.9,16.4c1.2,3.8,5.6,9.4,10.2,13c12.8,10,34,10.1,46.9,0.3
	c6.5-4.9,11.7-12.9,10.2-15.5c-0.4-0.6-0.7-1.9-0.7-2.8c0-1.6,1.9-5,3.1-5.6c1.7-0.8,3.7-4,3.7-6.1c0-2.4,0.8-3.9,2.1-3.9
	c2,0,1.7-6.1-0.3-8.7c-1.6-2-1.4-2.4,0.4-1.1c1.2,0.8,1.5,0.9,1.5,0.4c0-0.4,0.5-1,1-1.4c0.9-0.6,1-0.5,0.5,0.3
	c-0.3,0.5-0.5,3-0.4,5.5c0.2,4.2,0.3,4.7,1.6,5.5c1.2,0.7,1.5,1.4,1.7,4c0.2,2.2,0.9,4.1,2.3,6.3c1.6,2.6,1.9,3.6,1.7,5.3
	c-0.2,1.2-0.9,2.5-1.5,3.1c-1.5,1.3-7.8,9.5-8.4,11c-1.1,2.9-5,8.9-7.5,11.7c-3.9,4.4-8,7.1-15.2,9.7
	C318.5,170.2,310.1,170.9,299.4,168.9L299.4,168.9z"/>
</svg>
