<?xml version="1.0" encoding="utf-8"?>
<!-- Generator: Adobe Illustrator 21.1.0, SVG Export Plug-In . SVG Version: 6.00 Build 0)  -->
<svg version="1.1" id="Layer_1" xmlns="http://www.w3.org/2000/svg" xmlns:xlink="http://www.w3.org/1999/xlink" x="0px" y="0px"
	 viewBox="0 0 169.3 59.7" style="enable-background:new 0 0 169.3 59.7;" xml:space="preserve">
<style type="text/css">
	.st0{clip-path:url(#SVGID_2_);}
</style>
<g>
	<defs>
		<rect id="SVGID_1_" y="0" width="169.3" height="59.7"/>
	</defs>
	<clipPath id="SVGID_2_">
		<use xlink:href="#SVGID_1_"  style="overflow:visible;"/>
	</clipPath>
	<path class="st0" d="M4.4,13.3l-1.2,3.6C3.2,16.9,3.1,17,3,17H0.2C0,17,0,16.9,0,16.8L4.8,2.9C4.9,2.7,5,2.4,5,1.5
		c0-0.1,0.1-0.2,0.1-0.2H9c0.1,0,0.2,0,0.2,0.1l5.4,15.4c0,0.1,0,0.2-0.1,0.2h-3.1c-0.1,0-0.2,0-0.3-0.2l-1.2-3.6H4.4z M9.1,10.3
		C8.6,8.7,7.6,5.8,7.2,4.1h0c-0.4,1.6-1.2,4.2-1.9,6.2H9.1z"/>
	<path class="st0" d="M15.4,11.2c0-3.4,2.6-6.3,7-6.3c0.2,0,0.4,0,0.8,0V0.2C23.1,0,23.2,0,23.3,0h3c0.1,0,0.1,0,0.1,0.1v14.2
		c0,0.6,0,1.3,0.1,1.8c0,0.1,0,0.2-0.2,0.2c-1.7,0.7-3.2,1-4.7,1C18.1,17.3,15.4,15.2,15.4,11.2 M23.1,7.8c-0.2-0.1-0.6-0.1-0.9-0.1
		c-1.8,0-3.4,1.1-3.4,3.4c0,2.4,1.4,3.4,3.2,3.4c0.4,0,0.8,0,1.1-0.1V7.8z"/>
	<path class="st0" d="M40.5,11c0,3.8-2.4,6.3-5.9,6.3c-4.1,0-5.9-3.1-5.9-6.2c0-3.4,2.3-6.2,6-6.2C38.5,4.8,40.5,7.8,40.5,11 M32,11
		c0,2.1,1,3.5,2.6,3.5c1.4,0,2.4-1.2,2.4-3.4c0-1.9-0.8-3.4-2.6-3.4C33.1,7.6,32,8.9,32,11"/>
	<path class="st0" d="M45.7,0C45.9,0,46,0,46,0.2v4.9c0.6-0.2,1.3-0.3,2-0.3c3.5,0,5.8,2.5,5.8,5.7c0,4.5-3.6,6.7-7.2,6.7
		c-1.3,0-2.5-0.2-3.8-0.6c-0.1,0-0.1-0.1-0.1-0.2V0.2c0-0.1,0-0.2,0.2-0.2H45.7z M47.4,7.7c-0.8,0-1.1,0.1-1.4,0.2v6.5
		c0.3,0.1,0.6,0.1,0.9,0.1c1.8,0,3.5-1.1,3.5-3.6C50.3,8.7,49.1,7.7,47.4,7.7"/>
	<path class="st0" d="M58.8,11.9c0.1,1.4,1.1,2.5,3.4,2.5c1.1,0,2-0.2,3-0.6c0.1,0,0.1,0,0.1,0.1v2.3c0,0.2,0,0.2-0.2,0.3
		c-1,0.5-2,0.7-3.7,0.7c-4.5,0-6.1-3.1-6.1-6.1c0-3.3,2-6.3,5.8-6.3c3.6,0,5.1,2.8,5.1,5.2c0,0.7,0,1.3-0.1,1.6
		c0,0.1-0.1,0.2-0.2,0.2c-0.3,0-1.2,0.1-2.5,0.1H58.8z M61.9,9.6c0.8,0,1.1,0,1.2,0V9.4c0-0.6-0.5-1.9-2-1.9c-1.5,0-2.2,1.1-2.3,2.1
		H61.9z"/>
	<path class="st0" d="M1,40.4c-0.1-0.1-0.2-0.2-0.2-0.4v-2.9c0-0.1,0.1-0.2,0.2-0.1c1.3,0.8,2.9,1.2,4.3,1.2c1.8,0,2.5-0.6,2.5-1.5
		c0-0.8-0.6-1.3-2.2-2l-1.2-0.5c-3-1.2-3.8-2.7-3.8-4.6c0-2.6,2-4.7,5.8-4.7c1.5,0,2.9,0.2,3.7,0.6c0.1,0.1,0.1,0.2,0.1,0.3v2.7
		c0,0.1-0.1,0.2-0.2,0.1c-1-0.6-2.3-0.8-3.7-0.8C4.7,28,4,28.6,4,29.4c0,0.7,0.5,1.2,2.3,2l0.9,0.4c3.2,1.3,4.1,2.8,4.1,4.8
		c0,2.9-2.4,4.7-6,4.7C3.5,41.3,2,40.9,1,40.4"/>
	<path class="st0" d="M24.7,35c0,3.8-2.4,6.3-5.9,6.3c-4.1,0-5.9-3.1-5.9-6.2c0-3.4,2.3-6.2,6-6.2C22.7,28.8,24.7,31.8,24.7,35
		 M16.3,35c0,2.1,1,3.5,2.6,3.5c1.4,0,2.4-1.2,2.4-3.4c0-1.9-0.8-3.4-2.6-3.4C17.3,31.6,16.3,32.9,16.3,35"/>
	<path class="st0" d="M26.9,24.2c0-0.1,0-0.2,0.2-0.2H30c0.2,0,0.2,0.1,0.2,0.2v13.4c0,0.7,0.2,0.9,0.8,0.9c0.2,0,0.2,0,0.4,0
		c0.1,0,0.1,0,0.1,0.2v2.1c0,0.2,0,0.2-0.2,0.3c-0.3,0.1-0.7,0.2-1.5,0.2c-1.7,0-3-0.6-3-3.3V24.2z"/>
	<path class="st0" d="M43.7,38.4c0,1.2,0.1,2,0.1,2.5c0,0.1,0,0.2-0.2,0.2h-2.5c-0.2,0-0.2,0-0.3-0.2c0-0.2-0.1-0.5-0.1-0.7
		c-1.1,0.9-2.3,1.2-3.3,1.2c-2.4,0-4.1-1.3-4.1-4.6v-7.3c0-0.2,0-0.2,0.2-0.2h2.9c0.1,0,0.2,0,0.2,0.2v7c0,1.3,0.6,2.1,1.9,2.1
		c0.8,0,1.3-0.2,1.9-0.7v-8.4c0-0.1,0.1-0.2,0.2-0.2h2.9c0.2,0,0.2,0,0.2,0.2V38.4z"/>
	<path class="st0" d="M52.8,40.6c0,0.1,0,0.3-0.2,0.3c-0.7,0.2-1.3,0.3-2.1,0.3c-2.1,0-3.3-1-3.3-3.4v-6h-1.4
		c-0.1,0-0.2-0.1-0.2-0.2v-2.4c0-0.2,0-0.2,0.2-0.2h1.4c0-0.8,0.1-2.2,0.2-2.9c0-0.1,0.1-0.2,0.2-0.2l2.8-0.4c0.1,0,0.2,0,0.2,0.1
		c-0.1,0.7-0.1,2.2-0.1,3.3h2.2c0.1,0,0.2,0,0.2,0.2v2.4c0,0.1,0,0.1-0.2,0.2h-2.3V37c0,1.1,0.3,1.5,1.3,1.5c0.3,0,0.5,0,0.8-0.1
		c0.1,0,0.2,0,0.2,0.2V40.6z"/>
	<path class="st0" d="M54.7,25.9c0-1.1,0.8-1.8,1.9-1.8c1.2,0,1.8,0.8,1.8,1.8c0,1.1-0.7,1.9-1.9,1.9C55.4,27.8,54.7,27.1,54.7,25.9
		 M54.8,29.3c0-0.1,0-0.2,0.2-0.2h3c0.1,0,0.2,0,0.2,0.2v11.5c0,0.1,0,0.2-0.2,0.2h-2.9c-0.2,0-0.2-0.1-0.2-0.2V29.3z"/>
	<path class="st0" d="M72.2,35c0,3.8-2.4,6.3-5.9,6.3c-4.1,0-5.9-3.1-5.9-6.2c0-3.4,2.3-6.2,6-6.2C70.2,28.8,72.2,31.8,72.2,35
		 M63.7,35c0,2.1,1,3.5,2.6,3.5c1.4,0,2.4-1.2,2.4-3.4c0-1.9-0.8-3.4-2.6-3.4C64.8,31.6,63.7,32.9,63.7,35"/>
	<path class="st0" d="M74.3,31.9c0-0.8,0-2.1-0.1-2.6c0-0.1,0-0.2,0.2-0.2h2.5c0.2,0,0.3,0.1,0.3,0.2c0.1,0.2,0.1,0.5,0.2,0.8
		c1-0.8,2.1-1.2,3.4-1.2c1.8,0,4,1,4,4.8v7.1c0,0.1,0,0.2-0.2,0.2h-2.9c-0.2,0-0.2-0.1-0.2-0.2V34c0-1.4-0.6-2.2-1.9-2.2
		c-0.8,0-1.5,0.3-2,0.7v8.3c0,0.1-0.1,0.2-0.2,0.2h-2.9c-0.2,0-0.2-0.1-0.2-0.2V31.9z"/>
	<path class="st0" d="M93.5,25.5c0-0.1,0-0.2,0.1-0.2c1,0,2.9-0.1,4.7-0.1c4.8,0,6.5,2.7,6.5,5.3c0,3.9-3,5.5-6.7,5.5h-1.4v4.7
		c0,0.1,0,0.2-0.2,0.2h-3c-0.1,0-0.2-0.1-0.2-0.2V25.5z M96.8,33.1c0.4,0,0.7,0,1.3,0c1.9,0,3.4-0.6,3.4-2.5c0-1.5-1-2.5-3.1-2.5
		c-0.8,0-1.4,0-1.6,0V33.1z"/>
	<path class="st0" d="M115.8,38.4c0,0.6,0,1.1,0,1.7c0,0,0,0.1,0,0.1c-2.1,0.8-3.5,1.1-5.2,1.1c-2.7,0-4.8-1.2-4.8-4
		c0-2.5,2.2-3.9,5.4-3.9c0.6,0,1.2,0,1.4,0v-0.2c0-0.5-0.3-1.5-2.3-1.5c-1.2,0-2.3,0.2-3.2,0.6c-0.1,0-0.2,0-0.2-0.1v-2.4
		c0-0.1,0-0.2,0.2-0.2c1.1-0.5,2.4-0.7,3.8-0.7c3.5,0,5,2.1,5,4.9V38.4z M112.6,35.9c-0.4,0-0.7-0.1-1.2-0.1c-1.7,0-2.4,0.6-2.4,1.4
		c0,0.8,0.6,1.4,2.1,1.4c0.6,0,1-0.1,1.5-0.2V35.9z"/>
	<path class="st0" d="M121.3,29.1c0.2,0,0.2,0.1,0.3,0.2c0.1,0.3,0.2,0.8,0.3,1.3c0.8-0.9,2.1-1.8,3.8-1.8c0.1,0,0.2,0,0.2,0.2v3
		c0,0.1,0,0.2-0.2,0.2c-1.7-0.1-3.1,0.5-3.6,1l0,7.6c0,0.1,0,0.2-0.2,0.2h-2.9c-0.2,0-0.2-0.1-0.2-0.2v-8.3c0-1,0-2.4-0.1-3.3
		c0-0.1,0-0.2,0.1-0.2H121.3z"/>
	<path class="st0" d="M134.4,40.6c0,0.1,0,0.3-0.2,0.3c-0.7,0.2-1.3,0.3-2.1,0.3c-2.1,0-3.3-1-3.3-3.4v-6h-1.4
		c-0.1,0-0.2-0.1-0.2-0.2v-2.4c0-0.2,0-0.2,0.2-0.2h1.4c0-0.8,0.1-2.2,0.2-2.9c0-0.1,0.1-0.2,0.2-0.2l2.8-0.4c0.1,0,0.2,0,0.2,0.1
		c-0.1,0.7-0.1,2.2-0.1,3.3h2.2c0.1,0,0.2,0,0.2,0.2v2.4c0,0.1,0,0.1-0.2,0.2h-2.3V37c0,1.1,0.3,1.5,1.3,1.5c0.3,0,0.5,0,0.8-0.1
		c0.1,0,0.2,0,0.2,0.2V40.6z"/>
	<path class="st0" d="M136.4,31.9c0-0.8,0-2.1-0.1-2.6c0-0.1,0-0.2,0.2-0.2h2.5c0.2,0,0.3,0.1,0.3,0.2c0.1,0.2,0.1,0.5,0.2,0.8
		c1-0.8,2.1-1.2,3.4-1.2c1.8,0,4,1,4,4.8v7.1c0,0.1,0,0.2-0.2,0.2h-2.9c-0.2,0-0.2-0.1-0.2-0.2V34c0-1.4-0.6-2.2-1.9-2.2
		c-0.8,0-1.5,0.3-2,0.7v8.3c0,0.1-0.1,0.2-0.2,0.2h-2.9c-0.2,0-0.2-0.1-0.2-0.2V31.9z"/>
	<path class="st0" d="M152.5,35.9c0.1,1.4,1.1,2.5,3.4,2.5c1.1,0,2-0.2,3-0.6c0.1,0,0.1,0,0.1,0.1v2.3c0,0.2,0,0.2-0.2,0.3
		c-1,0.5-2,0.7-3.7,0.7c-4.5,0-6.1-3.1-6.1-6.1c0-3.3,2-6.3,5.8-6.3c3.6,0,5.1,2.8,5.1,5.2c0,0.7,0,1.3-0.1,1.6
		c0,0.1-0.1,0.2-0.2,0.2c-0.3,0-1.2,0.1-2.5,0.1H152.5z M155.7,33.6c0.8,0,1.1,0,1.2,0v-0.2c0-0.6-0.5-1.9-2-1.9
		c-1.5,0-2.2,1.1-2.3,2.1H155.7z"/>
	<path class="st0" d="M164.8,29.1c0.2,0,0.2,0.1,0.3,0.2c0.1,0.3,0.2,0.8,0.3,1.3c0.8-0.9,2.1-1.8,3.8-1.8c0.1,0,0.2,0,0.2,0.2v3
		c0,0.1,0,0.2-0.2,0.2c-1.7-0.1-3.1,0.5-3.6,1l0,7.6c0,0.1,0,0.2-0.2,0.2h-2.9c-0.2,0-0.2-0.1-0.2-0.2v-8.3c0-1,0-2.4-0.1-3.3
		c0-0.1,0-0.2,0.1-0.2H164.8z"/>
	<path class="st0" d="M0.9,51.2c0-0.1,0-0.1,0.1-0.1c0.5,0,1.7,0,2.7,0c2.8,0,3.2,1.4,3.2,2.3c0,0.9-0.5,1.4-0.8,1.7
		c0.5,0.2,1.2,0.8,1.2,2c0,1.6-1.4,2.6-3.6,2.6c-1.3,0-2.2,0-2.7,0c-0.1,0-0.1-0.1-0.1-0.1V51.2z M2.7,54.4h0.9c0.4,0,1,0,1.2,0.1
		c0.2-0.2,0.4-0.5,0.4-0.9c0-0.7-0.5-1-1.5-1c-0.4,0-0.7,0-0.9,0V54.4z M2.7,58.1c0.3,0,0.6,0,0.9,0c1.1,0,1.8-0.4,1.8-1.1
		c0-0.4-0.2-0.8-0.8-1c-0.2-0.1-0.5-0.1-0.8-0.1H2.7V58.1z"/>
	<path class="st0" d="M9.4,59.6c-0.1,0-0.1,0-0.1-0.1v-8.3c0-0.1,0-0.1,0.1-0.1c1.2,0,1.7,0,2.7,0c2.2,0,3.4,0.9,3.4,2.6
		c0,1.1-0.7,1.9-1.6,2.3c0.4,0.6,1.9,2.8,2.3,3.5c0,0.1,0.1,0.2,0,0.2h-1.9c-0.1,0-0.2,0-0.2-0.1c-0.4-0.6-1.2-2-1.7-2.8
		c-0.1-0.2-0.2-0.2-0.3-0.2h-0.9v3c0,0.1,0,0.1-0.1,0.1H9.4z M12.1,54.9c1,0,1.6-0.4,1.6-1.2c0-0.8-0.7-1.1-1.6-1.1
		c-0.4,0-0.8,0-1,0v2.3H12.1z"/>
	<path class="st0" d="M25.3,55.3c0,2.7-1.7,4.4-4.1,4.4c-2.5,0-4.1-1.9-4.1-4.4c0-2.4,1.6-4.4,4.1-4.4
		C23.8,50.9,25.3,52.9,25.3,55.3 M21.3,58.1c1.4,0,2.2-1.1,2.2-2.8c0-1.7-0.8-2.8-2.2-2.8c-1.3,0-2.2,1-2.2,2.8
		C19,56.9,19.8,58.1,21.3,58.1"/>
	<path class="st0" d="M27.4,59.6c-0.1,0-0.1,0-0.1-0.1v-8.3c0-0.1,0-0.1,0.1-0.1h2.1c0.1,0,0.1,0,0.2,0.1c0.9,1.6,2.6,5,3,6h0
		c0-0.4,0-0.8,0-2v-3.9c0-0.1,0-0.1,0.1-0.1h1.5c0.1,0,0.1,0,0.1,0.1v8.3c0,0.1,0,0.1-0.1,0.1h-1.9c-0.1,0-0.1,0-0.2-0.1
		C31.5,58,29.5,54.4,29,53h0c0.1,0.8,0.1,1.3,0.1,2.5v4c0,0.1,0,0.1-0.1,0.1H27.4z"/>
	<path class="st0" d="M36.4,59.6c-0.1,0-0.1,0-0.1-0.1v-1c0-0.1,0-0.1,0-0.2l4.3-5.6h-4.1c-0.1,0-0.1,0-0.1-0.1l0.2-1.4
		c0-0.1,0.1-0.1,0.1-0.1h6.1c0.1,0,0.1,0,0.1,0.1v1.1c0,0.1,0,0.1-0.1,0.2l-4.2,5.5h4.4c0.1,0,0.1,0.1,0.1,0.1l-0.2,1.4
		c0,0.1,0,0.1-0.1,0.1H36.4z"/>
	<path class="st0" d="M50.4,59.4c0,0.1,0,0.1-0.1,0.1H45c-0.1,0-0.1,0-0.1-0.1v-8.3c0-0.1,0-0.1,0.1-0.1h5.1c0.1,0,0.1,0,0.1,0.1
		l0.1,1.4c0,0.1,0,0.1-0.1,0.1h-3.6v1.7H50c0.1,0,0.1,0,0.1,0.1v1.4c0,0.1-0.1,0.1-0.1,0.1h-3.3v1.9h3.8c0.1,0,0.1,0,0.1,0.1
		L50.4,59.4z"/>
</g>
</svg>
