<svg xmlns="http://www.w3.org/2000/svg" viewBox="0 0 804.84 375.13"><defs><style>.cls-1{fill:#fefefe;}.cls-2{fill:#040404;}.cls-3{fill:#012e9c;}</style></defs><g id="Layer_2" data-name="Layer 2"><g id="Layer_1-2" data-name="Layer 1"><rect class="cls-1" width="804.84" height="375.13"/><path class="cls-2" d="M42.24,127.08a19.17,19.17,0,0,1-12.15-4.55c-1.38-1.13-2.1-2-.3-3.37,1.33-1,2.24-2.85,3.69-3.44,1.73-.71,2.63,1.6,4.12,2.27a13.26,13.26,0,0,0,9,1.18,4.18,4.18,0,0,0,3.44-4.54c0-2.31-1.47-3.31-3.5-3.77-2.85-.66-5.81-.65-8.64-1.5-5.22-1.58-8.12-4.87-8.45-9.76-.35-5.33,2-9.6,6.89-11.52,7-2.75,13.86-2.22,20.12,2.39,1.29,1,1.86,1.83.22,3a4.77,4.77,0,0,0-.6.59c-1.08,1.07-2,2.5-3.27,3.1-1.6.73-2.31-1.43-3.67-1.93-2.53-.93-5-1.54-7.72-.85-1.95.5-3.3,1.47-3.36,3.58-.06,2.27,1.38,3.45,3.4,3.89,3.12.7,6.38,1,9.41,1.93a11.51,11.51,0,0,1,4.53,19.16C52.72,125.61,48.62,127.05,42.24,127.08Z"/><path class="cls-2" d="M95.37,97c8.14-.41,8.19-.43,10.4,6.88,1.55,5.12,3,10.28,4.6,16,1.76-6.25,3.32-12,5-17.68,1.55-5.36,1.6-5.35,7.31-5.31h2.25c-2.55,7.76-5,15.34-7.53,22.92-2.19,6.61-2.2,6.51-9.3,6.66-2.23,0-3.24-.53-3.93-2.76C101.37,114.8,98.36,106,95.37,97Z"/><path class="cls-2" d="M81.8,102.76c0-5.29,0-10.57,0-15.86,0-1.52.3-2.08,2-2.11,6.52-.12,6.52-.18,6.52,6.29,0,8.78,0,17.56,0,26.34,0,1.73.06,3,2.31,2.58,1.31-.24,1.48.55,1.54,1.67.25,4.85.26,4.88-4.49,4.7-5-.19-7.66-2.69-7.77-7.75C81.72,113.33,81.81,108,81.8,102.76Z"/><path class="cls-2" d="M141.23,235.5c2.78-4.19,6.22-5.44,10.38-4.68a8.71,8.71,0,0,1,7.35,7.62c.95,6.85.28,13.77.38,20.65,0,2.16-1.82.93-2.81,1.18-1.31.32-1.78-.3-1.76-1.69.08-5.29.1-10.58,0-15.87-.1-5.73-2.75-8.49-7.5-8-4.4.44-6.36,2.58-6.37,7,0,5.57-.08,11.14.05,16.71,0,1.81-.73,2-2.16,1.9s-2.54.32-2.51-1.89c.13-8.21.07-16.43,0-24.65,0-1.53-.09-2.66,2.12-2.6,1.93.06,2.81.47,2.48,2.48A9.44,9.44,0,0,0,141.23,235.5Z"/><path class="cls-2" d="M170,101.92a7.77,7.77,0,0,1,6.94-5.07c1.23-.09,2.08.12,1.87,1.63a8,8,0,0,0,0,.85c0,1.61.49,3.5-.19,4.74-.8,1.48-2.91.46-4.43.7-3.74.58-4.83,1.74-4.85,5.61,0,4.73-.07,9.45,0,14.18,0,1.51-.45,1.84-1.9,1.86-6.54.13-6.54.18-6.54-6.32,0-6.71.15-13.43-.08-20.13-.09-2.74.86-3.43,3.33-3.14,1.59.19,3.51-.43,4.73.28S168.72,100.11,170,101.92Z"/><path class="cls-2" d="M86.17,189c-3.73,4.66-7.1,5.92-11.62,4.61-4-1.14-6.45-4.52-6.64-9.81-.22-5.94,0-11.9-.13-17.85,0-2.07,1.27-1.59,2.43-1.67,1.4-.11,2.27.05,2.24,1.88-.09,5.66-.17,11.34.07,17,.22,5.36,3.68,7.75,8.88,6.53,3.27-.76,4.81-2.62,4.83-6q.06-8.36,0-16.71c0-1.6-.18-2.75,2.21-2.78s2.39,1.19,2.38,2.91q-.06,11.76,0,23.52c0,1.6.18,2.71-2.19,2.8-2.54.08-2.52-1.13-2.39-2.86A14.85,14.85,0,0,0,86.17,189Z"/><path class="cls-2" d="M147.4,168.49c1.65-2.76,3.91-4.53,7.17-4.77,5.84-.44,10.29,3.05,10.59,8.92.32,6.41.1,12.84.18,19.26,0,2.26-1.6,1.24-2.59,1.42-1.32.23-2.06-.11-2-1.76q.15-8.22,0-16.43c-.1-6-3.95-8.72-9.68-6.86-2.6.85-4.07,2.54-4,5.43.05,5.86-.08,11.72.06,17.57.05,1.91-.69,2.17-2.29,2.11-1.44-.06-2.41.05-2.38-2,.14-8.31.12-16.62,0-24.93,0-1.8.5-2.22,2.22-2.18s2.74.21,2.41,2.26A2.06,2.06,0,0,0,147.4,168.49Z"/><path class="cls-2" d="M249.49,170.89a9.74,9.74,0,0,0-9.2-3.19c-2.27.35-3.87,1.55-4,4s1.25,3.69,3.36,4.24,4.45.82,6.64,1.35c4.57,1.1,6.76,3.5,6.92,7.4a8.33,8.33,0,0,1-6.6,8.71c-5.47,1.43-10.5.57-14.63-3.58-.57-.57-1.83-1.3-.39-2.13,1-.57,1.54-2.71,3.34-.87,2.82,2.89,6.24,4.12,10.3,3a4.22,4.22,0,0,0,3.51-4.19c.08-2.36-1.33-3.63-3.39-4.28-2.52-.8-5.22-.71-7.74-1.65-3.94-1.49-5.92-4-5.77-7.76a8,8,0,0,1,6.07-7.63,14.22,14.22,0,0,1,11.49,1.2C253,167.6,253,168.28,249.49,170.89Z"/><path class="cls-2" d="M109.25,163.7a12.7,12.7,0,0,1,9.27,3.5c.7.66,1.22,1.4.09,2-.88.44-1.23,2.57-2.82,1a9.46,9.46,0,0,0-8.36-2.51c-2.25.31-3.9,1.42-4.12,3.92s1.32,3.85,3.51,4.42,4.27.76,6.38,1.26c4.71,1.13,6.94,3.61,7,7.62a8.37,8.37,0,0,1-6.8,8.59c-5.12,1.23-10,.61-13.93-3.26-.6-.59-2.52-1.15-1-2.49,1-.85,1.89-2.62,3.78-.62a9.49,9.49,0,0,0,9.83,2.74c2.31-.61,3.64-2,3.64-4.4s-1.46-3.6-3.56-4.14c-1.55-.4-3.16-.54-4.73-.86-6.15-1.24-9-4.27-8.6-9C99.32,166.62,103.18,163.73,109.25,163.7Z"/><path class="cls-2" d="M215,163.7a12.73,12.73,0,0,1,9,3.38c.77.71,1.42,1.44.14,2.18-.85.49-1.25,2.44-2.84.87a9.27,9.27,0,0,0-8.38-2.42c-2.24.34-3.86,1.48-4,4s1.24,3.7,3.35,4.24,4.45.82,6.64,1.36c4.58,1.11,6.72,3.48,6.86,7.43a8.27,8.27,0,0,1-6.61,8.69c-5.46,1.41-10.49.54-14.62-3.63-.57-.58-1.77-1.34-.35-2.13,1-.53,1.53-2.69,3.35-.82a9.92,9.92,0,0,0,10.31,3,4.27,4.27,0,0,0,3.51-4.22c.08-2.3-1.31-3.68-3.41-4.25-1.55-.41-3.16-.55-4.73-.85-6.3-1.23-9.22-4.3-8.74-9.14S208.84,163.7,215,163.7Z"/><path class="cls-2" d="M65.55,111.53c0-4.24,0-8.49,0-12.74,0-1.41.33-1.93,1.88-2,6.53-.21,6.53-.27,6.53,6.32,0,7.07,0,14.15,0,21.23,0,1.54-.32,2.06-2,2.07-6.45.07-6.45.14-6.45-6.41Z"/><path class="cls-2" d="M118.07,246.53c0-3-.12-6.05.05-9.06.11-1.92-.57-2.44-2.38-2.28-1.17.1-2.63.59-2.64-1.71,0-2,.81-2.41,2.5-2.22,2.06.22,3-.82,3-2.81,0-1,.08-2.09,0-3.11-.16-1.51.22-2.14,1.93-2.14s2.48.41,2.17,2.19a8.29,8.29,0,0,0,0,1.41c0,4.35,0,4.43,4.34,4.43,1.57,0,2.09.4,2.1,2s-.53,2-2.08,2c-4.36,0-4.36.07-4.36,4.43s.23,8.88-.08,13.3c-.21,3,.83,3.88,3.54,3.36s2.64,1.19,2.49,3c0,.52-.22.94-.82.91-2.34-.1-4.75.46-7-.41a4.18,4.18,0,0,1-2.65-4.27C118.06,252.57,118.08,249.55,118.07,246.53Z"/><path class="cls-2" d="M205.16,235.52a10,10,0,0,1,8-4.29c1.71-.07,2.12.59,2,2.12-.12,1.27.35,2.73-1.88,2.49a11.44,11.44,0,0,0-3.63.32c-4.08.88-5.13,2.24-5.13,6.43,0,5.28-.09,10.56,0,15.84.05,1.81-.74,2-2.16,1.88s-2.54.32-2.5-1.87c.13-8.3.08-16.6,0-24.89,0-1.56.14-2.38,2.08-2.36s2.86.31,2.55,2.41A1.62,1.62,0,0,0,205.16,235.52Z"/><path class="cls-2" d="M99.88,235.84a10.76,10.76,0,0,1,8.44-4.6c1.64-.11,2.22.45,2,2-.14,1.2.51,2.79-1.79,2.54a10.92,10.92,0,0,0-3.92.36c-3.79,1-4.75,2.17-4.76,6.12,0,5.37-.11,10.75.05,16.12.07,2.16-1.16,1.83-2.46,1.89s-2.22,0-2.2-1.87q.17-12.58,0-25.16c0-2,.81-2.05,2.33-2.06s2.61.13,2.3,2.09A16.41,16.41,0,0,0,99.88,235.84Z"/><path class="cls-2" d="M128.23,178.75c0-4.16.08-8.32,0-12.47-.05-1.69.57-2.13,2.11-2,1.26.12,2.58-.38,2.55,1.85q-.19,12.63,0,25.24c0,2.1-1,1.89-2.44,2-1.7.12-2.29-.34-2.23-2.15C128.33,187.07,128.23,182.91,128.23,178.75Z"/><path class="cls-2" d="M64.81,89c0-3.13,1.71-4.74,5-4.73s4.92,1.64,4.87,4.84c0,3-1.73,4.6-4.84,4.64S64.82,92.12,64.81,89Z"/><path class="cls-2" d="M130.12,151.78c2.37,0,3.23,1.14,3.18,3a2.49,2.49,0,0,1-2.82,2.72c-2,0-2.81-1.06-2.78-3S128.71,151.84,130.12,151.78Z"/><path class="cls-2" d="M52.41,172.59c2.89-1.08,4.79-2.73,5.53-5.55,1.8-7-2.49-12.71-9.82-12.91-4.91-.13-9.83,0-14.74-.06-1.59,0-2.08.43-2.07,2.05q.09,17.69,0,35.39c0,1.55.55,1.87,2,1.85,5.48-.06,11,0,16.44-.05,4.09-.05,7-2.17,8.72-5.74C61.47,181.37,59.38,176,52.41,172.59Zm-9.9-14.32a53.1,53.1,0,0,1,5.65.13c3.71.42,5.2,2.52,5.06,6.79-.12,3.74-1.86,5.66-5.45,5.87-1.69.1-3.39,0-5.09,0-6.46,0-6.46,0-6.46-6.55C36.22,158.27,36.22,158.26,42.51,158.27ZM48,189.22c-1.7.05-3.4,0-5.1,0-6.28,0-6.67,0-6.7-5.47v-1.17c0-1.79.08-3.58,0-5.37-.09-1.49.2-2.21,1.95-2.14,3.3.14,6.61,0,9.91.07,4.62.14,6.49,2.34,6.45,7.34C54.48,187,52.48,189.08,48,189.22Z"/><path class="cls-2" d="M144.15,96.54c-8.13-1.71-14.81,2.51-16.61,10.51-1.67,7.44.69,14.74,5.81,18s13.71,2.59,18.78-1.17c1.31-1,2-1.64.56-3.25-2.64-3-2.52-3.1-6-1.17-4.7,2.63-10.1.73-10.89-3.8-.21-1.24-.11-1.93,1.46-1.87,2.64.12,5.29,0,7.94,0s5.29,0,7.94,0c.77,0,1.59.3,1.83-1.07A14.24,14.24,0,0,0,144.15,96.54Zm.8,12.29c-1.31,0-2.62,0-3.94,0-.75,0-1.5,0-2.25,0-3.29,0-3.77-.74-2.27-3.64,1.26-2.43,3.42-3.14,5.93-2.66,2.66.51,3.43,2.6,3.75,5C146.3,108.49,145.92,108.86,145,108.83Z"/><path class="cls-2" d="M47.33,221.06c-4.53-.08-9.08.11-13.61-.07-2.12-.08-2.46.72-2.42,2.59.11,5.76,0,11.52,0,17.28s.1,11.71-.05,17.56c-.06,2.19,1.2,1.87,2.51,1.88s2.56.26,2.47-1.9c-.17-4.24,0-8.5-.08-12.75,0-1.56.36-2.13,2-2.06,3.11.13,6.24.12,9.35,0,6.79-.24,10.78-4.44,10.8-11.24S54.26,221.19,47.33,221.06Zm-1.16,18.32c-2.74,0-5.48-.06-8.22,0-1.36.05-1.83-.38-1.75-1.75.1-1.78,0-3.58,0-5.37h-.1c.11-2.24-.63-5.23.54-6.54,1.36-1.53,4.42-.33,6.74-.49.94-.06,1.89,0,2.84,0,5.26.07,7,1.78,7,7C53.23,237.66,51.6,239.33,46.17,239.38Z"/><path class="cls-2" d="M88.73,258.72c-.15-1,.61-2.55-1.39-2.35-1.77.18-2-.71-2-2.17.07-4.54,0-9.08,0-13.61a9.16,9.16,0,0,0-3.22-7.54c-4.43-3.61-12.74-3.15-16.69,1-.89.93-2.3,1.69-.66,3.43s2.24.37,3.19-.56a9,9,0,0,1,9.48-1.74c3,1.27,3.25,3.81,3.36,6.58.07,1.67-.5,2.05-2.06,2-3.49-.11-7-.24-10.41.89-4.1,1.35-6.18,4.28-5.88,8.25a8.16,8.16,0,0,0,7,7.81c4.74.84,8.87,0,11.4-4.69,1.93,3.74,3,4.4,6.29,4.32C88.38,260.3,88.94,260,88.73,258.72Zm-8-6.38c-.47,3.11-4.42,5.35-8.52,4.84-3.56-.45-5-2.21-4.88-5.64a3.89,3.89,0,0,1,3.13-3.84,15.79,15.79,0,0,1,5.52-.59C81.41,247.11,81.53,247.25,80.76,252.34Z"/><path class="cls-2" d="M183.49,231.16c-6.89-1.9-13.39,1.34-15.77,7.9a20.55,20.55,0,0,0-.72,11.15A13.25,13.25,0,0,0,188.57,258c3.28-2.78,3.24-3.49-.34-5.75-.59.73-1.12,1.51-1.78,2.18-2.76,2.77-6.11,3.18-9.68,2.08a8,8,0,0,1-5.36-7.29c-.14-1.64.17-2.31,2.05-2.26,5.67.13,11.34.06,17,0,.83,0,1.81.44,2.06-1.14C193.47,239.76,189.23,232.75,183.49,231.16Zm2,12.49c-1.55-.13-3.11-.08-4.67-.06l-1.56,0c-1.35,0-2.71-.09-4.05-.05-.45,0-.89,0-1.33.09-2.39.29-2.73-.77-2.28-2.73a8.21,8.21,0,0,1,8.78-6.42,7.45,7.45,0,0,1,7.07,6.83C187.64,243,187.43,243.81,185.47,243.65Z"/><path class="cls-2" d="M179.06,180c2.92.09,5.86,0,8.79,0h5.67c5.52,0,5.52,0,4.66-5.55-.94-6-5.31-10.26-11.05-10.77a12.46,12.46,0,0,0-13.42,8.58,19.75,19.75,0,0,0-.39,12c1.32,4.78,4.22,8.29,9.23,9.36s9.63.21,13.2-3.8c.71-.8,2.41-1.67.66-3.19-1.45-1.26-2.34-1.38-3.66.41-2.19,2.95-6.44,3.78-10,2.45a8.25,8.25,0,0,1-5.33-7.64C177.31,180.58,177.61,180,179.06,180Zm-1.45-5.67a8.07,8.07,0,0,1,8.62-6.83c4,.18,6.89,3,7.34,7.19.15,1.37-.06,2.1-1.72,2-1-.08-2.06-.09-3.1-.08s-2.07,0-3.11,0l-3.1,0c-1,0-2.07,0-3.1.06C177.49,176.82,177.29,176,177.61,174.36Z"/><path class="cls-3" d="M767.08,186.32a7.66,7.66,0,1,0,7.65,7.66h0a7.66,7.66,0,0,0-7.65-7.66m0,14.32a6.67,6.67,0,1,1,6.38-7v.28a6.48,6.48,0,0,1-6.27,6.66h0"/><path class="cls-3" d="M771.13,192c0-1.48-.77-2.26-3-2.26h-3.74v8.64h1.1v-3.91h2l2.47,3.91h1.27l-2.54-3.91c1.48,0,2.64-.67,2.64-2.36m-4.19,1.55h-1.59v-3H768c1.09,0,2.15,0,2.15,1.48s-1.76,1.58-3,1.58"/><path class="cls-3" d="M605.22,88a33,33,0,0,0-19.64-8.53H522.11V88h83.11"/><path class="cls-3" d="M522.11,104h91.95A21.92,21.92,0,0,0,612,95.47H522.11Z"/><path class="cls-3" d="M614.84,111.58H588.43V120h25.21a27.74,27.74,0,0,0,1.16-8.54"/><rect class="cls-3" x="538.79" y="111.44" width="24.72" height="8.53"/><path class="cls-3" d="M538.79,135.59h64.06a31.56,31.56,0,0,0,7-8.43H538.79Z"/><path class="cls-3" d="M610.43,151.6a42.39,42.39,0,0,0-7.65-8.29h-64v8.43h71.54"/><path class="cls-3" d="M538.79,167.57h25.1v-8.43h-25.1Z"/><path class="cls-3" d="M588.82,159.14v8.53h26.65a24.65,24.65,0,0,0-1.58-8.53Z"/><path class="cls-3" d="M522.11,183.19h89.1a18.29,18.29,0,0,0,3.24-8.43H522.11Z"/><path class="cls-3" d="M522.11,199.26h62a30.89,30.89,0,0,0,21.47-8.42H522.11Z"/><polyline class="cls-3" points="737.18 111.44 697.16 111.44 694.1 120.01 737.18 120.01 737.18 111.44"/><polygon class="cls-3" points="621.89 104 675.09 104 672.13 95.47 621.89 95.47 621.89 104"/><rect class="cls-3" x="712.85" y="143.14" width="24.33" height="8.43"/><polygon class="cls-3" points="638.18 120.01 680.77 120.01 677.84 111.44 638.18 111.44 638.18 120.01"/><rect class="cls-3" x="712.85" y="159.04" width="24.22" height="8.43"/><rect class="cls-3" x="712.85" y="174.73" width="40.62" height="8.43"/><polygon class="cls-3" points="687.15 199.16 688.21 199.16 691.28 190.73 684.19 190.73 687.15 199.16"/><rect class="cls-3" x="621.89" y="190.73" width="40.62" height="8.53"/><polyline class="cls-3" points="669.49 87.99 666.46 79.46 621.89 79.46 621.89 87.99 669.49 87.99"/><polygon class="cls-3" points="681.44 183.19 693.92 183.19 696.78 174.72 678.51 174.72 681.44 183.19"/><polyline class="cls-3" points="686.38 135.59 683.31 127.16 638.18 127.16 638.18 135.59 662.51 135.59 662.51 129.1 664.76 135.59 686.38 135.59"/><rect class="cls-3" x="638.18" y="159.04" width="24.33" height="8.43"/><rect class="cls-3" x="638.18" y="143.14" width="24.33" height="8.43"/><rect class="cls-3" x="621.89" y="174.73" width="40.62" height="8.43"/><rect class="cls-3" x="712.85" y="190.73" width="40.62" height="8.53"/><polygon class="cls-3" points="699.81 104 753.47 104 753.47 95.47 702.74 95.47 699.81 104"/><polygon class="cls-3" points="705.38 87.99 753.47 87.99 753.47 79.46 708.45 79.46 705.38 87.99"/><path class="cls-3" d="M676.05,167.57h23.34l3-8.53H673l3,8.42"/><path class="cls-3" d="M670.65,151.6H705s2.86-8.29,3-8.29H667.41l3,8.53"/><path class="cls-3" d="M737.18,135.59v-8.43H691.56l-2.86,8.43h22l2.18-6.38v6.49Z"/><polyline class="cls-3" points="456.89 190.73 456.89 199.26 514.67 199.26 514.57 190.73 456.89 190.73"/><rect class="cls-3" x="473.07" y="127.16" width="24.82" height="8.43"/><rect class="cls-3" x="473.07" y="111.44" width="24.82" height="8.43"/><rect class="cls-3" x="473.07" y="143.14" width="24.82" height="8.43"/><rect class="cls-3" x="456.85" y="95.47" width="57.68" height="8.43"/><rect class="cls-3" x="456.85" y="79.46" width="57.68" height="8.53"/><rect class="cls-3" x="473.07" y="159.04" width="24.82" height="8.43"/><path class="cls-3" d="M514.57,174.73H456.82v8.42h57.75v-8.42"/><rect x="24.39" y="23.58" width="756.07" height="6.42"/><rect x="24.39" y="345.13" width="756.07" height="6.42"/></g></g></svg>